<svg id="Grupo_1727" data-name="Grupo 1727" xmlns="http://www.w3.org/2000/svg" xmlns:xlink="http://www.w3.org/1999/xlink" width="30.021" height="39.495" viewBox="0 0 30.021 39.495">
  <defs>
    <clipPath id="clip-path">
      <rect id="Rectángulo_1013" data-name="Rectángulo 1013" width="30.021" height="39.495" fill="none"/>
    </clipPath>
  </defs>
  <g id="Grupo_1726" data-name="Grupo 1726" transform="translate(0 0)" clip-path="url(#clip-path)">
    <text id="_" data-name=" " transform="translate(10.06 34.283)" fill="#003365" font-size="5" font-family="OpenSans-Extrabold, Open Sans" font-weight="800"><tspan x="0" y="0"> </tspan></text>
    <path id="Trazado_490" data-name="Trazado 490" d="M18.626,2.137c-.022.04-.076.268-.2.321a1.5,1.5,0,0,1-.611.009c-.018,0-.052-.079-.046-.116.042-.265.087-.53.148-.79.009-.037.114-.075.173-.073.377.012.546.173.54.648" transform="translate(-1.815 -0.152)" fill="#002f7a"/>
    <path id="Trazado_491" data-name="Trazado 491" d="M8.212,3.737a1.528,1.528,0,0,1,.213,0c.026,0,.049.042.068.07,0,0-.03.031-.047.048s-.032.034-.05.049c-.11.092-.321.19-.315.274.018.261.256.083.391.132.04.015.11.009.123.035.028.056.058.146.031.186a1.034,1.034,0,0,1-.618.213.778.778,0,0,1-.379-.614c.014-.325.111-.392.583-.4" transform="translate(-0.78 -0.382)" fill="#002f7a"/>
    <path id="Trazado_492" data-name="Trazado 492" d="M15.59,1.757c-.171.023-.247-.026-.25-.224,0-.219.113-.218.264-.21.046,0,.1-.017.138,0,.112.066.216.145.323.218-.112.071-.221.146-.337.209-.037.019-.092,0-.139,0" transform="translate(-1.568 -0.135)" fill="#002f7a"/>
    <path id="Trazado_493" data-name="Trazado 493" d="M13.19,2.317c-.132.072-.265.15-.4.215-.031.014-.088-.013-.127-.034-.007,0,.017-.064.023-.1.028-.157.048-.316.085-.47.007-.03.11-.067.114-.061.107.146.206.3.308.449" transform="translate(-1.294 -0.191)" fill="#002f7a"/>
    <path id="Trazado_494" data-name="Trazado 494" d="M22.21,2.842c-.031.17.063.378-.176.338a1.527,1.527,0,0,1-.4-.2l.461-.369.119.231" transform="translate(-2.21 -0.267)" fill="#002f7a"/>
    <path id="Trazado_495" data-name="Trazado 495" d="M2.886,18.006c-.006.037-.011.238-.048.244a1.3,1.3,0,0,1-.611,0,.579.579,0,0,1,0-.489c.119-.125.361-.136.552-.186a.126.126,0,0,1,.1.071,2.718,2.718,0,0,1,.005.361" transform="translate(-0.222 -1.796)" fill="#002f7a"/>
    <path id="Trazado_496" data-name="Trazado 496" d="M30.854,16.976c-.012.325-.138.487-.341.494s-.6-.348-.518-.464a1.245,1.245,0,0,1,.458-.387c.075-.036.248.078.346.161.056.047.048.168.056.2" transform="translate(-3.064 -1.698)" fill="#002f7a"/>
    <path id="Trazado_497" data-name="Trazado 497" d="M21,26.388l.236.094c-.086.073-.18.211-.257.2-.111-.013-.21-.133-.314-.207L21,26.388" transform="translate(-2.112 -2.697)" fill="#002f7a"/>
    <path id="Trazado_498" data-name="Trazado 498" d="M9.141,25.376c.01.207-.234.605-.324.576a2.342,2.342,0,0,1-.5-.286c-.009-.006,0-.071.023-.1.071-.091.208-.172.214-.264.014-.242.189-.212.294-.17a1.05,1.05,0,0,1,.29.239" transform="translate(-0.85 -2.566)" fill="#002f7a"/>
    <path id="Trazado_499" data-name="Trazado 499" d="M5.916,22.985a.346.346,0,0,1-.373-.337.145.145,0,0,1,.092-.09c.04-.013.114-.012.131.013a2.886,2.886,0,0,1,.2.346c.005.012-.04.049-.054.067" transform="translate(-0.566 -2.304)" fill="#002f7a"/>
    <path id="Trazado_500" data-name="Trazado 500" d="M5.28,23.342l-.2-.25a.358.358,0,0,1,.112-.051c.168-.014.167.1.155.218,0,.027-.038.049-.066.083" transform="translate(-0.519 -2.354)" fill="#002f7a"/>
    <path id="Trazado_501" data-name="Trazado 501" d="M28.871,21.409l-.282.282-.347-.374a2.591,2.591,0,0,1,.4-.043c.064,0,.126.071.233.136" transform="translate(-2.886 -2.174)" fill="#002f7a"/>
    <path id="Trazado_502" data-name="Trazado 502" d="M4.836,21.482c-.092.092-.184.19-.188.187-.13-.11-.25-.231-.372-.349.089-.017.19-.069.264-.043a1.291,1.291,0,0,1,.3.206" transform="translate(-0.437 -2.174)" fill="#002f7a"/>
    <path id="Trazado_503" data-name="Trazado 503" d="M29.816,14.184c-.2,0-.145.155-.142.259a8.547,8.547,0,0,1-.748,3.155,11.554,11.554,0,0,1-1.277,2.358,6.872,6.872,0,0,1-.51.725,12.967,12.967,0,0,1-1.281,1.413,18.156,18.156,0,0,1-2.939,2.119,24.856,24.856,0,0,1-2.485,1.15,4.555,4.555,0,0,1-1.146.358,6.723,6.723,0,0,0-1.05.263c-.329.1-.706-.066-1.006.184-.015.012-.048,0-.072,0-.8.048-1.6.083-2.393.15a6.421,6.421,0,0,1-1.24-.15c-.39-.042-.8.119-1.167-.145A11.328,11.328,0,0,1,8.9,25.139a17.483,17.483,0,0,1-2.216-1.093,4.436,4.436,0,0,1-.694-.41c-.532-.412-1.06-.83-1.564-1.276-.4-.35-.75-.747-1.128-1.118a12.466,12.466,0,0,1-1.626-2.214A6.773,6.773,0,0,1,1.2,18,5.516,5.516,0,0,1,.745,16.96c-.054-.26-.188-.505-.233-.767a7.94,7.94,0,0,0-.18-.8c-.12-.422,0-.869-.142-1.237a3.821,3.821,0,0,1-.111-1.25,1.824,1.824,0,0,1,.116-.887c.105-.242-.082-.631.047-.841.168-.274-.02-.627.263-.833a10.244,10.244,0,0,1,1.3-3.358A10.181,10.181,0,0,1,3.071,5.208,16.763,16.763,0,0,1,4.7,3.579,17.937,17.937,0,0,1,6.427,2.348,13.418,13.418,0,0,1,10.063.677,19.088,19.088,0,0,1,12.378.146,17.006,17.006,0,0,1,14.633.04,14.867,14.867,0,0,1,16.94.052a16.986,16.986,0,0,1,3.3.73,18.271,18.271,0,0,1,3.084,1.435,8.612,8.612,0,0,1,1.94,1.421,2.341,2.341,0,0,0,.806.664,9.525,9.525,0,0,0,1.063,1.222,14.62,14.62,0,0,1,1.482,2.342,20.351,20.351,0,0,1,.893,2.37,6.354,6.354,0,0,1,.163,1.377c.012.105-.056.257.144.259Zm-8.807,8.376c-.435.093-.816.331-1.24.46a2.042,2.042,0,0,1-.813.286,2.446,2.446,0,0,1-.647.251c-.305.046-.215.279-.171.359a.9.9,0,0,1,.136.379,1.31,1.31,0,0,0,.143.44.306.306,0,0,0,.191.132c.275.061.226-.14.238-.3.019-.252.2-.355.4-.23a2.934,2.934,0,0,0,.331.239.359.359,0,0,0,.257-.053.2.2,0,0,0-.013-.18c-.14-.1-.065-.4-.34-.352a1.294,1.294,0,0,0,.074-.487c-.046-.178-.233-.248.013-.075a1.245,1.245,0,0,1,.142,0,.344.344,0,0,0,.365-.144c.072.136.148.269.213.409a1.55,1.55,0,0,0,.154.357.423.423,0,0,0,.3.092c.188,0,.151-.177.119-.26-.068-.183-.215-.341-.264-.526-.029-.112-.136-.322.154-.373.19-.033.3-.206.587-.714a.221.221,0,0,0-.2.34c.165.312.325.628.507.93.035.057.1.258.241.092.065-.079.145-.22.116-.287a10.572,10.572,0,0,0-.495-.936c-.04-.071-.133-.112-.492.152M5.415,20.683a1.1,1.1,0,0,0,.144,0c.09-.013.179-.032.268-.049a1.146,1.146,0,0,0-.062-.244.779.779,0,0,0-.149-.154c-.488-.5-.521-.642-1.106-.022-.483.511-.492.567.048,1.049.032.028.11.033.114.057.026.146.058.314.242.2.061-.037.031-.246.02-.375,0-.06-.063-.116-.1-.174a2.852,2.852,0,0,1,.305.091c.224.093.244.084.271-.174a1.742,1.742,0,0,0,0-.206M7.093,4.793c.532.118.84-.343,1.254-.556A.261.261,0,0,0,8.437,4a2.97,2.97,0,0,0-.311-.588c-.036-.053-.17-.054-.259-.053-.3,0-.092-.1-.043-.177.074-.116.089-.246-.082-.253-.347-.013-.726-.1-.96.283-.326-.026-.321.28-.446.452-.172.235.219.4.09.634.258.113.208.617.666.5m-4.855,6.56v.216c-.005.171-.032.328.242.313.242-.013.169-.162.193-.292a6.856,6.856,0,0,1,.319-1.527,13.361,13.361,0,0,1,1.45-2.8c.2-.26.429-.491.618-.753A4.587,4.587,0,0,1,6.383,5.2c.059-.037.145-.1.145-.152a.665.665,0,0,0-.084-.3c-.065-.127-.12-.041-.2.008A8.444,8.444,0,0,0,4.267,6.784a7.372,7.372,0,0,0-.866,1.3,9.837,9.837,0,0,0-.634,1.468,2.453,2.453,0,0,1-1.252,1.725c0,.212.007.286,0,.356-.021.179.036.249.233.25.236,0,.214-.141.2-.28-.061-.59.326-1.1.3-1.681.445-.65.542-1.458.995-2.114A10.462,10.462,0,0,1,4.591,5.995c.234-.221.385-.554.751-.617a2.073,2.073,0,0,1,.582-.726c.067-.069.164-.126.194-.207a.23.23,0,0,0-.088-.212.316.316,0,0,0-.271.017c-.4.329-.789.664-1.164,1.018a4.5,4.5,0,0,0-.363.5c-.233.291-.492.56-.708.862A10.662,10.662,0,0,0,2,9.453a1.681,1.681,0,0,0,.238,1.9m10.4,4.2q0-2.959,0-5.918c0-.356,0-.361-.329-.363q-1.083,0-2.166,0c-.26,0-.613-.081-.756.054s-.071.489-.067.748c.005.353.035.707.054,1.059.335,0,.67.021,1,.011.188-.006.243.052.242.241-.007,1.252,0,2.5,0,3.754,0,1.106,0,2.213,0,3.32,0,.206-.075.25-.258.153a3.573,3.573,0,0,1-.4-.254,6.691,6.691,0,0,1-2.945-5.477c0-.221.126-.44.13-.662a4.293,4.293,0,0,1,.611-1.983,6.515,6.515,0,0,1,2.2-2.4,6.533,6.533,0,0,1,1.535-.823,3.557,3.557,0,0,0,.948-.331c.1-.063.2-.057.2-.213-.006-.6,0-1.2,0-1.8,0-.188-.135-.187-.242-.157A14.621,14.621,0,0,0,10.787,5,10.326,10.326,0,0,0,7.022,7.73a8.531,8.531,0,0,0-1.479,2.349,7.324,7.324,0,0,0-.562,2.294,10.743,10.743,0,0,1-.008,1.154,4.4,4.4,0,0,0,.185,1.592,9.987,9.987,0,0,0,.964,2.2,8.008,8.008,0,0,0,1.166,1.527,9.12,9.12,0,0,0,1.659,1.38,11.948,11.948,0,0,0,1.832.972,10.059,10.059,0,0,0,1.527.491c.28.074.327.009.327-.282q0-2.924,0-5.847M17.4,13.084q0,3.753,0,7.507c0,.356.022.711.035,1.067.42.159.742-.159,1.086-.273a9.766,9.766,0,0,0,3.719-2.163,8.055,8.055,0,0,0,1.115-1.271,6.08,6.08,0,0,0,.889-1.578c.029-.093.119-.16-.044-.163-.36-.011-.725.024-1.082-.012a.826.826,0,0,0-.8.352,7.29,7.29,0,0,1-.667.8c-.525.51-1.076.994-1.621,1.482a.942.942,0,0,1-.241.113,1.288,1.288,0,0,1-.081-.248,3.207,3.207,0,0,1,0-.36q0-5.306,0-10.61a5.575,5.575,0,0,1,.067-.62,4.038,4.038,0,0,0,.411.4A10.187,10.187,0,0,1,22.172,9.5a2.561,2.561,0,0,0,.726.832,3,3,0,0,0,1.11.1c.1.005.193,0,.289,0,.171.008.224-.1.164-.223a11.234,11.234,0,0,0-1.889-2.9c-.258-.266-.584-.464-.85-.722a5.849,5.849,0,0,0-1.353-.923c-.294-.156-.594-.305-.9-.451s-.609-.273-.909-.417-.681-.056-.97-.28c-.022-.016-.18.07-.188.122a3.486,3.486,0,0,0-.009.5q0,3.97,0,7.94m-1.3,2.467q0-1.515,0-3.029c0-1.034,0-2.069,0-3.1,0-.2-.022-.3-.263-.294-.552.018-1.106,0-1.659.006-.388,0-.391,0-.391.371q0,6.059,0,12.119a.639.639,0,0,1,0,.072c-.03.2.017.3.259.3.552-.019,1.106,0,1.659-.007.387,0,.391,0,.391-.37q0-3.03,0-6.06m.576-9.411A1.645,1.645,0,0,0,15.1,4.511a1.572,1.572,0,0,0-1.212.545,1.555,1.555,0,0,0-.5,1.146,1.49,1.49,0,0,0,.543,1.128,1.772,1.772,0,0,0,1.085.5,1.74,1.74,0,0,0,1.659-1.69m11.7,5.239.051-.016a3.346,3.346,0,0,1-.189-.646A6.3,6.3,0,0,0,27.5,8.5a12.146,12.146,0,0,0-2.587-3.612c-.271-.253-.577-.469-.851-.719-.105-.1-.154-.058-.206.025a.516.516,0,0,0-.1.243c0,.051.086.108.141.153.233.189.484.359.7.566A10.376,10.376,0,0,1,25.535,6.2a10.628,10.628,0,0,1,1.873,3.193,7.256,7.256,0,0,1,.538,2.014.94.94,0,0,0,.143.37.2.2,0,0,0,.159.089.184.184,0,0,0,.119-.127,2.4,2.4,0,0,0,.006-.36m-.7.064c-.047-.187-.12-.425-.167-.668a7.97,7.97,0,0,0-.633-1.9,10.83,10.83,0,0,0-1.6-2.517A9.719,9.719,0,0,0,23.692,4.8c-.136-.1-.192-.156-.315,0a.2.2,0,0,0,.083.344,2.8,2.8,0,0,1,.85.724c.273.286.505.61.769.9a9.074,9.074,0,0,1,1.663,2.84,6.386,6.386,0,0,1,.476,1.893c0,.173-.086.4.251.372.309-.024.132-.243.2-.436M23.313,3.72a.833.833,0,0,0-.094-.1c-.2-.17-.407-.173-.537.018a3.784,3.784,0,0,0-.232.478.588.588,0,0,1-.077.1c-.022-.039-.063-.077-.064-.117-.005-.288-.016-.576,0-.863a.413.413,0,0,0-.25-.454A.519.519,0,0,0,21.447,3a2.862,2.862,0,0,1-.52.791c-.15.155-.022.246.075.348.142.15.254.073.346-.051.065-.088.1-.2.157-.293a1.064,1.064,0,0,1,.151-.154.644.644,0,0,1,.071.18,2.766,2.766,0,0,1,0,.5.592.592,0,0,0,.4.6c.24.128.4-.1.523-.266.221-.286.411-.6.615-.9a.45.45,0,0,1,.05-.051M16.025.9c-.5,0-.529,0-.5.394a4.393,4.393,0,0,1-.152,1.086c-.025.158,0,.278.218.255.165-.018.39-.073.49.01.3.245.551.07.82-.014A.816.816,0,0,0,17.248,1.4c-.113-.122-.216-.3-.357-.341A6.024,6.024,0,0,0,16.025.9M14,.9c-.191,0-.382.007-.574,0-.142-.007-.222.022-.217.189.008.311-.013.623.009.932.011.15.119.294.131.444.019.243.186.169.308.167.192,0,.12-.163.13-.266s-.009-.192.006-.286c.009-.059.052-.155.088-.159a1.187,1.187,0,0,1,.422.015c.04.011.034.166.066.25a1.743,1.743,0,0,1,.136.3c.037.24.213.136.329.137.035,0,.093-.131.105-.208a.832.832,0,0,0,0-.356,1.19,1.19,0,0,0-.195-.277c-.2-.287.179-.074.177-.2a2.687,2.687,0,0,0,.021-.347A.337.337,0,0,0,14.573.9c-.191.005-.383,0-.575,0M12.777,2.762l.145-.056a1.131,1.131,0,0,0-.1-.243c-.281-.386-.559-.775-.864-1.142a.406.406,0,0,0-.362-.117c-.176.1-.427.13-.47.406-.023.15-.105.291-.143.44-.082.325-.162.652-.22.981-.023.132.01.242.174.081.11-.107.366-.164.373-.258.02-.279.192-.229.344-.217.339.028.678.075,1.125.125m-3.344.883c.695-.007,1.129-.4,1.023-.954a3.828,3.828,0,0,0-.364-.922.312.312,0,0,0-.281-.12.386.386,0,0,0-.2.261c-.018.1.053.211.087.316.063.189.143.374.187.568a.334.334,0,0,1-.278.416.343.343,0,0,1-.414-.2c-.109-.215-.17-.454-.26-.681a.476.476,0,0,0-.155-.239c-.044-.023-.167.054-.226.114a.431.431,0,0,0-.1.224c-.049.319.174.551.3.808.135.283.361.5.689.408m10.774.143c.345,0,.447-.071.359-.249a2.068,2.068,0,0,1-.127-1.1c.024-.353-.175-.464-.435-.614-.277-.162-.329.075-.454.176-.344.281-.68.572-1.013.866a.209.209,0,0,0,.109.338c.092.013.231.033.276-.016.224-.248.4-.026.617,0,.324.041.477.139.472.477,0,.048.164.1.2.119m7.433,10.4c.192,0,.385,0,.577,0s.169-.139.149-.246c-.013-.069-.083-.173-.138-.18-.19-.022-.384-.005-.576-.011a.394.394,0,0,1-.124-.048c.046-.031.089-.065.136-.093.173-.106.345-.212.52-.314.2-.116.2-.3.194-.5,0-.156-.057-.2-.209-.2-.337.008-.674.015-1.01,0-.2-.01-.235.078-.233.251s.08.189.222.19c.209,0,.418.03.628.047-.167.085-.342.159-.5.259a1.62,1.62,0,0,0-.258.251c-.156.159-.091.357-.059.532.006.039.207.05.321.06s.241,0,.361,0M10.468,24.45a.738.738,0,0,0,0,.215c.031.073.087.2.121.194a.312.312,0,0,0,.223-.131,2.072,2.072,0,0,0,.087-.4,1.433,1.433,0,0,1,.072-.183,1.583,1.583,0,0,0,.073.185c.074.138.2.266.22.409.033.266.287.252.417.39a.26.26,0,0,0,.22-.062,3.29,3.29,0,0,0,.288-1.242c0-.043-.136-.106-.207-.106s-.2.057-.207.107c-.029.138.006.288-.016.428-.011.066-.094.119-.145.179a.857.857,0,0,1-.133-.194c-.059-.168-.093-.345-.15-.513-.087-.262-.21-.318-.54-.306-.31.011-.144.237-.178.368-.061.241-.109.485-.146.658M3.106,16.14c-.078-.211-.207-.565-.338-.918-.243.088-.486.179-.731.261-.043.015-.127-.014-.137.005-.112.22-.444.062-.476.192-.039.154.109.354.171.535a2.125,2.125,0,0,0,.068.258.9.9,0,0,0,.628.591c.376.059.81-.379.815-.924m2.888,6.035a.714.714,0,0,0,.351.658.2.2,0,0,0,.187-.027c.245-.326.479-.659.707-1,.018-.026-.024-.1-.054-.147-.053-.078-.111-.142-.2-.025-.074.092-.175.164-.25.257-.092.113-.171.238-.254.358-.018-.16-.04-.319-.053-.479a1.168,1.168,0,0,1,0-.286.576.576,0,0,0-.214-.648c-.051-.022-.173,0-.185.033-.131.349-.478.539-.634.883-.074.163-.094.22.035.312.15.11.214.085.286-.11.058-.155.237-.266.362-.4A.339.339,0,0,1,6,22.056c-.023.021,0,.092,0,.119M1.712,15.053C2,15,2.3,14.961,2.588,14.9c.038-.008.068-.11.077-.171a.132.132,0,0,0-.071-.107,1.416,1.416,0,0,0-.215-.005c-.185-.014-.371-.034-.556-.051.136-.1.279-.2.408-.307a1.637,1.637,0,0,0,.349-.36.483.483,0,0,0,.057-.38c-.063-.154-.247-.29-.4-.19a1.306,1.306,0,0,1-.811.13c-.242-.011-.192.147-.2.283,0,.192.143.168.248.148s.2-.11.3-.132a.875.875,0,0,1,.274.024.72.72,0,0,1-.122.2c-.194.161-.394.315-.6.46a.3.3,0,0,0-.085.385c.048.1.21.157.329.221.037.02.094,0,.142,0m24.928.367a.827.827,0,0,0,.8.774.8.8,0,0,0,.524-.259,1.753,1.753,0,0,0,.251-.751c.04-.34-.408-.714-.794-.712a.867.867,0,0,0-.785.947m-17.9,7.657a.94.94,0,0,0-.563-.806c-.571-.334-.605-.325-.875.211-.387.766-.339.889.453,1.187a.667.667,0,0,0,.985-.592M2.648,18.839a1.374,1.374,0,0,0,.187-.127c.055-.054.147-.083.053-.208a1.638,1.638,0,0,1-.211-.486c-.018-.055.025-.129.04-.2a.84.84,0,0,1,.1.124c.073.136.128.286.213.414.037.056.131.074.2.11.03-.084.153-.083.108-.262s-.42-.382-.164-.513c.321-.164.215.292.368.417.013.012.007.057.02.061a.571.571,0,0,0,.192.051c.026,0,.069-.065.075-.1.028-.207-.311-.974-.482-1.015-.238-.057-.417.1-.6.247a2.124,2.124,0,0,1-.365.157c-.3.16-.3.172-.146.5.1.222.193.449.294.671a1.03,1.03,0,0,0,.119.159m12.585,5.82c0-.372.055-.428.4-.363.129.025.246.112.374.133a.267.267,0,0,0,.231-.086c.038-.073.036-.243-.007-.268-.193-.11-.4-.306-.625-.206-.245.106-.63.037-.722.3a1.493,1.493,0,0,0-.016.951c.162.423,1.1.444,1.377.074a1.267,1.267,0,0,0,.115-.285.871.871,0,0,0-.27-.035c-.152.03-.294.107-.446.136-.342.066-.406.005-.407-.353m-6.386-.792c.087.181-.081.36.145.428.3.089.588.2.886.28a.177.177,0,0,0,.148-.094c.013-.053-.022-.161-.063-.177-.163-.066-.343-.094-.506-.162-.062-.025-.1-.119-.145-.18a.577.577,0,0,1,.157-.1c.066-.016.167-.029.206.007.174.163.391.277.485,0,.071-.213-.275-.154-.386-.29-.029-.036-.138,0-.208-.009-.039-.006-.071-.047-.107-.072.039-.023.078-.068.115-.066.179.013.382-.075.525.122.019.026.123-.01.188-.018-.01-.082.011-.189-.033-.241-.248-.294-.653-.264-.962-.438-.013-.008-.1.073-.119.125-.058.168-.091.344-.151.511-.053.144-.129.278-.175.375m16.417-5.2a.379.379,0,0,0-.2.523,8.825,8.825,0,0,0,.575,1.132.2.2,0,0,0,.181.061c.043-.011.084-.1.093-.154.016-.093-.013-.2.008-.287.076-.33.108-.691.586-.717a.393.393,0,0,0,.263-.272c.023-.239-.194-.129-.312-.145-.34-.047-.682-.082-1.194-.14M25.2,20.831a1.919,1.919,0,0,0,0-.215c-.013-.066-.03-.131-.044-.2a1.029,1.029,0,0,0-.152.1c-.136.128-.273.245-.249.476.007.079-.121.191-.211.255-.054.039-.479-.33-.5-.417-.05-.212.046-.332.331-.442a2.126,2.126,0,0,0,.353-.184.128.128,0,0,0,.032-.122.256.256,0,0,0-.131-.121c-.337-.1-.516.136-.717.34-.185.188-.419.367-.294.662.109.255.171.576.539.628.084.012.185.115.242.091a1.749,1.749,0,0,0,.632-.356,1.129,1.129,0,0,0,.168-.5M17.356,23.7c-.193.042-.46.09-.718.167a.241.241,0,0,0-.1.213,2.226,2.226,0,0,1,.145.947c.017.161.156.334.341.266a2.168,2.168,0,0,1,.875-.14c.022,0,.073-.072.068-.105-.008-.062-.044-.169-.075-.171-.214-.015-.43,0-.644-.013-.049,0-.1-.072-.143-.11.052-.057.092-.142.158-.169.178-.075.536.123.534-.126,0-.31-.364-.111-.561-.167-.022-.006-.048,0-.071,0-.065-.017-.127-.038-.191-.057a.551.551,0,0,0,.151-.088c.18-.21.435-.1.648-.167.028-.007.05-.076.05-.118s-.022-.113-.046-.118c-.113-.022-.231-.026-.426-.043M4.693,19.384c0-.048.019-.11,0-.143-.164-.244-.338-.483-.508-.724-.2.1-.4.2-.592.312a2.529,2.529,0,0,0-.445.31c-.057.052-.265.1-.1.244.076.068.26.148.283.122.192-.216.321-.112.463.051a3.408,3.408,0,0,0,.357.354c.046.039.167.065.186.04.143-.174.427-.263.364-.567m8.282,4.476c-.168,0-.338-.009-.5.006a.178.178,0,0,0-.118.127.185.185,0,0,0,.1.149c.316.087.337.113.329.522,0,.144.007.288,0,.432s.039.221.2.209c.118-.008.247.019.239-.166a.752.752,0,0,1,0-.215,1.872,1.872,0,0,1,.178-.57c.048-.075.261-.035.4-.065.054-.013.131-.066.137-.11a.211.211,0,0,0-.076-.171,1.413,1.413,0,0,0-.874-.148M22.4,22.27c-.03-.031-.075-.058-.086-.1s-.011-.113.014-.132c.126-.092.268-.163.388-.261.031-.025.013-.127-.006-.187a.128.128,0,0,0-.118-.042c-.289.164-.574.338-.86.507a1.371,1.371,0,0,0,.4.694c.09.092.115.256.212.332a.517.517,0,0,0,.329.035c.027,0,.082-.15.06-.174-.263-.3-.117-.434.186-.54.053-.019.071-.139.1-.213-.062-.022-.13-.075-.185-.063a4.426,4.426,0,0,0-.443.139m4.671-4c.052-.066.134-.122.14-.185.008-.1.068-.229-.1-.293-.207-.077-.393-.213-.6-.277s-.192-.166-.081-.293c.093-.109.119-.233-.015-.278-.071-.024-.233.067-.281.149-.155.268-.264.562-.418.83-.066.113-.136.209-.009.291.044.028.186-.025.234-.083a.406.406,0,0,1,.659-.052,1.855,1.855,0,0,0,.476.19M17.687,2.517c0,.375,0,.384.145.4a.4.4,0,0,0,.431-.271c.012-.045-.014-.1,0-.142.14-.308.059-.679.278-.967.02-.027-.057-.188-.11-.2a.421.421,0,0,0-.565.32c-.084.3-.133.619-.183.857m8.878,13.8c-.069.04-.194.073-.2.125a.27.27,0,0,0,.108.229,9.378,9.378,0,0,0,.911.392c.193.072.3-.09.4-.215a.2.2,0,0,0-.042-.182c-.382-.122-.768-.23-1.18-.348m-3.589,4.745c-.037.1-.109.2-.083.236.237.314.485.621.746.916a.307.307,0,0,0,.261.042c.059-.016.147-.158.133-.177-.221-.3-.448-.59-.695-.865-.066-.075-.2-.088-.362-.152M1.841,13.031a4.665,4.665,0,0,0,.572-.01c.046-.006.105-.135.105-.207s-.064-.2-.1-.206c-.357-.016-.716-.016-1.074,0-.041,0-.105.135-.105.207s.058.2.106.206a3.2,3.2,0,0,0,.5.01" transform="translate(-0.007 0)" fill="#002f7a"/>
    <text id="IS" transform="translate(0 36.284)" fill="#003365" font-size="7" font-family="OpenSans, Open Sans"><tspan x="0" y="0" letter-spacing="-0.073em">I</tspan><tspan y="0">S</tspan></text>
    <text id="O" transform="translate(4.95 36.284)" fill="#003365" font-size="7" font-family="OpenSans, Open Sans"><tspan x="0" y="0">O</tspan></text>
    <text id="_2700" data-name="2700" transform="translate(11.4 36.283)" fill="#003365" font-size="7" font-family="OpenSans-Bold, Open Sans" font-weight="700"><tspan x="0" y="0" letter-spacing="-0.073em">270</tspan><tspan y="0">0</tspan></text>
    <text id="_1" data-name="1" transform="translate(25.871 36.282)" fill="#003365" font-size="7" font-family="OpenSans-Bold, Open Sans" font-weight="700"><tspan x="0" y="0">1</tspan></text>
  </g>
</svg>
