<svg id="Grupo_1741" data-name="Grupo 1741" xmlns="http://www.w3.org/2000/svg" xmlns:xlink="http://www.w3.org/1999/xlink" width="24.156" height="39.256" viewBox="0 0 24.156 39.256">
  <defs>
    <clipPath id="clip-path">
      <rect id="Rectángulo_1014" data-name="Rectángulo 1014" width="24.156" height="39.256" fill="none"/>
    </clipPath>
  </defs>
  <g id="Grupo_1729" data-name="Grupo 1729" transform="translate(0 0)">
    <g id="Grupo_1728" data-name="Grupo 1728" clip-path="url(#clip-path)">
      <path id="Trazado_504" data-name="Trazado 504" d="M16.736,6.5q0-3.205,0-6.411c0-.1,0-.087.082-.086h.051c.191.006.382.009.574.017q.215.01.429.033c.207.022.415.05.623.078.152.021.3.043.457.069.124.022.247.051.371.077s.226.044.337.072c.131.033.26.07.389.107.082.022.163.047.244.073.164.053.33.1.492.162.2.075.407.152.6.241.255.115.506.239.755.365a7.022,7.022,0,0,1,.775.467c.164.111.322.23.48.352.128.1.252.2.373.312s.248.217.36.338c.186.2.368.4.534.621a5.854,5.854,0,0,1,.48.739,4.471,4.471,0,0,1,.2.415c.072.166.139.333.194.5.05.154.086.311.123.467s.053.3.077.453c.014.089.014.181.02.272s.015.2.014.3a5.138,5.138,0,0,1-.043.566c-.014.117-.03.234-.054.35s-.051.252-.087.375-.1.267-.139.4a3.979,3.979,0,0,1-.267.6,4.569,4.569,0,0,1-.411.655c-.1.135-.2.274-.312.4s-.229.26-.35.384a6.5,6.5,0,0,1-.621.558c-.15.12-.3.234-.461.345a7.912,7.912,0,0,1-.718.455c-.163.09-.328.178-.495.261s-.335.16-.506.234c-.151.065-.3.126-.459.178-.2.069-.4.147-.6.2-.136.033-.267.084-.4.121-.108.03-.22.051-.329.076s-.208.049-.313.071c-.084.017-.168.031-.251.046s-.194.037-.292.052c-.115.017-.229.032-.344.047l-.368.048c-.061.007-.121.012-.181.015-.144.008-.288.017-.431.022-.168.007-.337.01-.506.014a.193.193,0,0,1-.058,0,.052.052,0,0,1-.032-.03.219.219,0,0,1,0-.058q0-3.214,0-6.428m2.511-.568h1.259c.074,0,.078-.007.067-.075s-.019-.119-.025-.179a4.785,4.785,0,0,0-.086-.545,5.8,5.8,0,0,0-.238-.847,5.57,5.57,0,0,0-.357-.786,5.335,5.335,0,0,0-.534-.794,4.463,4.463,0,0,0-.606-.613,3.956,3.956,0,0,0-.76-.5c-.033-.017-.043-.012-.044.027,0,.014,0,.028,0,.042V5.807c0,.025,0,.05,0,.074,0,.04,0,.047.042.05.02,0,.038,0,.059,0h1.226M17.924,9.266V11.35c0,.017,0,.033,0,.05,0,.033.011.038.043.022.066-.033.134-.064.2-.1a4.185,4.185,0,0,0,.67-.484,4.71,4.71,0,0,0,.582-.624,5.114,5.114,0,0,0,.491-.764,4.828,4.828,0,0,0,.332-.769c.051-.165.105-.329.152-.495.033-.116.061-.234.085-.352.018-.089.026-.179.039-.269.02-.136.04-.272.059-.407a.034.034,0,0,0-.037-.043H18c-.079,0-.079,0-.079.075a.117.117,0,0,0,0,.016Zm5.224-3.335h1.234c.022,0,.045,0,.067,0s.04-.017.033-.046c-.012-.046-.022-.091-.032-.137a3.854,3.854,0,0,0-.4-1.027A5.172,5.172,0,0,0,23.2,3.59a6.765,6.765,0,0,0-.594-.53,7.213,7.213,0,0,0-.855-.582,7.353,7.353,0,0,0-.837-.426c-.233-.1-.471-.186-.707-.279a.041.041,0,0,0-.016,0,.015.015,0,0,0-.013.007.018.018,0,0,0,0,.015.205.205,0,0,0,.017.019c.105.135.215.267.315.406A6.129,6.129,0,0,1,21.1,3.2c.074.156.144.314.209.475a6.065,6.065,0,0,1,.228.668c.034.124.072.249.1.374.038.182.079.364.105.549.023.16.051.32.061.482,0,.046.013.092.017.139s.02.043.048.042h1.284m1.323,1.243c0-.057,0-.059-.054-.061H21.949c-.142,0-.142,0-.149.139v.008c-.016.134-.029.268-.048.4-.014.1-.032.2-.051.292-.034.172-.065.345-.109.515a7.419,7.419,0,0,1-.241.76c-.076.2-.158.4-.252.588-.074.152-.158.3-.24.45a5.685,5.685,0,0,1-.46.694c-.061.079-.125.155-.186.233a.137.137,0,0,0-.012.035.1.1,0,0,0,.04.005c.029-.009.056-.022.085-.031a8.016,8.016,0,0,0,.772-.313c.192-.087.379-.189.562-.295q.325-.19.636-.4a6.287,6.287,0,0,0,.691-.553,5.79,5.79,0,0,0,.636-.688c.116-.147.217-.306.319-.462a3.693,3.693,0,0,0,.188-.328c.056-.111.1-.225.149-.34a4.3,4.3,0,0,0,.189-.613.253.253,0,0,0,0-.036" transform="translate(-4.645 0)" fill="#1b7159"/>
      <path id="Trazado_505" data-name="Trazado 505" d="M5.964,6.069h-1.6c-.1,0-.1,0-.081-.1s.032-.228.059-.34c.038-.157.078-.313.131-.465A6.209,6.209,0,0,1,4.7,4.583a5.569,5.569,0,0,1,.273-.515,5.083,5.083,0,0,1,.352-.517,5.392,5.392,0,0,1,.414-.493c.09-.092.181-.185.272-.277.06-.06.121-.119.183-.178a6.292,6.292,0,0,1,.49-.408c.2-.149.394-.291.6-.422.153-.1.311-.186.468-.274s.3-.17.459-.243c.226-.106.454-.208.686-.3.215-.087.436-.165.657-.236s.473-.139.71-.206a.1.1,0,0,1,.035,0,.122.122,0,0,1-.017.035l-.268.267c-.077.078-.156.154-.229.236-.094.1-.186.21-.272.321-.114.145-.223.294-.331.442a7.726,7.726,0,0,0-.508.811,7.813,7.813,0,0,0-.377.784c-.048.116-.09.235-.133.353s-.1.261-.141.392c-.03.094-.047.191-.077.285-.042.131-.072.264-.1.4-.017.08-.034.16-.048.241a1.364,1.364,0,0,1-.038.227,2.259,2.259,0,0,0-.043.292,2.236,2.236,0,0,0-.032.261c-.006.057-.012.114-.016.172,0,.023-.013.035-.036.035H5.964Z" transform="translate(-1.186 -0.143)" fill="#1b7159"/>
      <path id="Trazado_506" data-name="Trazado 506" d="M10.29,15.386c-.121-.031-.244-.06-.364-.1-.192-.056-.385-.111-.573-.179-.231-.085-.457-.185-.687-.271a7.354,7.354,0,0,1-.725-.34c-.127-.064-.249-.138-.373-.21-.078-.045-.155-.091-.231-.138a5.987,5.987,0,0,1-.539-.366c-.17-.131-.341-.262-.5-.4a5.716,5.716,0,0,1-.607-.6c-.074-.086-.151-.169-.223-.256s-.132-.169-.2-.255a5,5,0,0,1-.375-.58,5.457,5.457,0,0,1-.262-.53,4.518,4.518,0,0,1-.183-.507c-.038-.131-.079-.261-.111-.394s-.045-.252-.067-.379c-.005-.028.007-.041.035-.04H7.569a.163.163,0,0,1,.087.01c.015.01.009.05.012.077.009.084.02.168.03.252.007.057.014.114.022.171a.354.354,0,0,1,.009.04,2.648,2.648,0,0,0,.064.4c.028.153.057.306.092.457.025.1.059.2.09.306.048.157.092.315.147.469a7.928,7.928,0,0,0,.432,1c.1.19.2.376.311.561a8.054,8.054,0,0,0,.564.818c.142.182.3.354.453.524.136.15.28.291.421.436Z" transform="translate(-1.186 -2.732)" fill="#1b7159"/>
      <path id="Trazado_507" data-name="Trazado 507" d="M13.87,3.435v2.6c0,.11.01.1-.1.1H10.779c-.1,0-.1.015-.088-.1.01-.134.027-.267.048-.4s.048-.259.073-.388c.013-.069.028-.138.043-.207.012-.053.02-.108.036-.16.072-.212.128-.43.207-.641a7.8,7.8,0,0,1,.327-.758,6.684,6.684,0,0,1,.52-.868q.2-.288.436-.56a7.735,7.735,0,0,1,.6-.627c.127-.118.262-.228.4-.335s.3-.22.445-.329c.033-.024.039-.02.041.02V3.435Z" transform="translate(-2.966 -0.206)" fill="#1b7159"/>
      <path id="Trazado_508" data-name="Trazado 508" d="M13.87,12.539v2.583c0,.03-.005.059-.008.089a.776.776,0,0,1-.083-.048c-.134-.1-.267-.194-.4-.293-.079-.06-.157-.122-.232-.187-.1-.086-.2-.172-.3-.264-.112-.113-.217-.233-.324-.349-.053-.057-.105-.113-.155-.173-.067-.079-.131-.162-.2-.243s-.143-.176-.2-.269q-.19-.284-.367-.575a6.3,6.3,0,0,1-.459-.949q-.128-.323-.223-.658c-.035-.126-.069-.252-.1-.38s-.051-.28-.076-.42c-.016-.092-.033-.183-.046-.275s-.012-.16-.021-.238c0-.034.009-.046.04-.045h3.086c.056,0,.056,0,.057.054v2.64Z" transform="translate(-2.966 -2.732)" fill="#1b7159"/>
      <path id="Trazado_509" data-name="Trazado 509" d="M24.463,28.048c-.37,0-.739,0-1.109,0a1.871,1.871,0,0,1-.436-.042,1.12,1.12,0,0,1-.636-.354,1.045,1.045,0,0,1-.221-.428c-.016-.064-.035-.126-.051-.189A.386.386,0,0,1,22,26.972l-.03-.254c0-.022,0-.044,0-.066,0-.418,0-.836,0-1.253,0-.082.022-.164.024-.246a1.25,1.25,0,0,1,.04-.243,1.54,1.54,0,0,1,.064-.2.992.992,0,0,1,.386-.493,1.161,1.161,0,0,1,.346-.151A1.746,1.746,0,0,1,23.192,24c.124-.006.249-.016.373-.017h1.7a3.519,3.519,0,0,1,.537.038,1.532,1.532,0,0,1,.571.2.921.921,0,0,1,.42.532,1.461,1.461,0,0,1,.062.413c0,.087,0,.172,0,.258,0,.034-.007.05-.046.05q-.359,0-.717,0c-.036,0-.048-.012-.048-.049,0-.079,0-.16,0-.241,0-.046-.009-.092-.015-.139a.286.286,0,0,0-.241-.249,2.08,2.08,0,0,0-.254-.037,8.841,8.841,0,0,0-1.063-.027c-.355,0-.712-.006-1.067,0a.731.731,0,0,0-.394.1.43.43,0,0,0-.176.242.845.845,0,0,0-.035.259c0,.479,0,.958,0,1.437a.586.586,0,0,0,.1.34.444.444,0,0,0,.295.178,1.09,1.09,0,0,0,.205.02h2.11a.711.711,0,0,0,.337-.07.351.351,0,0,0,.191-.256,2.762,2.762,0,0,0,.022-.329c0-.03-.014-.038-.04-.038h-1.76c-.1,0-.087.007-.087-.09,0-.191,0-.382,0-.573,0-.081-.005-.078.075-.078H26.8c.106,0,.095-.006.095.093,0,.29,0,.581,0,.871a1.625,1.625,0,0,1-.088.475,1.136,1.136,0,0,1-.183.347.841.841,0,0,1-.273.223,1.483,1.483,0,0,1-.725.165Z" transform="translate(-6.097 -6.657)" fill="#1b7159"/>
      <path id="Trazado_510" data-name="Trazado 510" d="M5.714,28.047c-.347,0-.695.007-1.042,0a1.6,1.6,0,0,1-.769-.2.837.837,0,0,1-.414-.568,1.548,1.548,0,0,1-.032-.336v-.358c0-.059,0-.06.06-.06h.692c.051,0,.056.005.056.059,0,.147,0,.293,0,.44a.239.239,0,0,0,.123.2.444.444,0,0,0,.186.063,1.765,1.765,0,0,0,.223.017H6.6a1.414,1.414,0,0,0,.344-.038.337.337,0,0,0,.251-.31c0-.1,0-.194,0-.291a.207.207,0,0,0-.074-.168.4.4,0,0,0-.14-.066,1.487,1.487,0,0,0-.354-.035H5.435c-.153,0-.307.009-.458-.005-.186-.017-.373-.022-.558-.054a2.344,2.344,0,0,1-.32-.075.826.826,0,0,1-.576-.553,1.269,1.269,0,0,1-.066-.38c0-.119,0-.238,0-.358a1.034,1.034,0,0,1,.149-.483.875.875,0,0,1,.435-.355,2.035,2.035,0,0,1,.537-.124,6.654,6.654,0,0,1,.73-.03c.375,0,.751,0,1.126.005.145,0,.29.027.435.044a1.753,1.753,0,0,1,.236.04A1.27,1.27,0,0,1,7.6,24.3a.807.807,0,0,1,.29.5,1.633,1.633,0,0,1,.022.238c0,.111,0,.222,0,.332,0,.033-.009.051-.048.05-.23,0-.462,0-.692,0-.048,0-.056-.011-.058-.061,0-.1-.007-.2-.014-.306a.633.633,0,0,0-.022-.121A.138.138,0,0,0,7,24.841a.794.794,0,0,0-.13-.051,1.359,1.359,0,0,0-.271-.038c-.082,0-.163-.017-.246-.025a.527.527,0,0,0-.059,0H5.026c-.051,0-.1.009-.155.014a2.049,2.049,0,0,0-.391.062.3.3,0,0,0-.214.283c0,.089,0,.177,0,.266a.227.227,0,0,0,.174.212,1.189,1.189,0,0,0,.31.048c.582.032,1.166.008,1.749.013a3.055,3.055,0,0,1,.563.039,1.356,1.356,0,0,1,.566.212.817.817,0,0,1,.316.409,1.116,1.116,0,0,1,.061.379c0,.119,0,.238,0,.358a1.068,1.068,0,0,1-.073.378.841.841,0,0,1-.436.475,1.682,1.682,0,0,1-.471.141,9.075,9.075,0,0,1-1.139.033c-.058,0-.116,0-.175,0Z" transform="translate(-0.959 -6.657)" fill="#1b7159"/>
      <path id="Trazado_511" data-name="Trazado 511" d="M11.647,22.638H.895c-.1,0-.083,0-.084-.086,0-.105,0-.21,0-.316,0-.055.007-.06.063-.061h.05l21.471,0c.1,0,.107-.006.105.1s0,.21,0,.316c0,.033-.012.046-.043.044H11.647" transform="translate(-0.225 -6.155)" fill="#1b7159"/>
      <path id="Trazado_512" data-name="Trazado 512" d="M13.254,26.042V24.148c0-.017,0-.033,0-.05,0-.035.01-.051.048-.048s.049,0,.074,0h3.2a1.716,1.716,0,0,1,.386.043.83.83,0,0,1,.488.29.819.819,0,0,1,.131.254,1.657,1.657,0,0,1,.072.429,1.766,1.766,0,0,1,.01.254,4.384,4.384,0,0,1-.051.558.806.806,0,0,1-.4.561,1.337,1.337,0,0,1-.465.133A9.64,9.64,0,0,1,15.6,26.6c-.472,0-.945,0-1.417,0h-.042c-.056,0-.056,0-.052.061a.527.527,0,0,1,0,.059v1.22c0,.012,0,.022,0,.033,0,.051-.007.058-.058.058-.245,0-.489,0-.734,0-.037,0-.049-.012-.048-.048s0-.094,0-.141ZM15.336,24.8v0H14.178a.263.263,0,0,0-.059,0,.042.042,0,0,0-.025.025.191.191,0,0,0,0,.05v.9c0,.014,0,.027,0,.041,0,.03.014.04.042.037a.4.4,0,0,1,.042,0H16.3a1.8,1.8,0,0,0,.264-.02.263.263,0,0,0,.246-.265q0-.258,0-.514a.22.22,0,0,0-.118-.2.369.369,0,0,0-.181-.052H15.336" transform="translate(-3.679 -6.676)" fill="#1b7159"/>
      <path id="Trazado_513" data-name="Trazado 513" d="M19.517,28.706V28.3c0-.075,0-.077.072-.077h.776c.069,0,.072,0,.072.069q0,.419,0,.839c0,.059,0,.06-.059.06h-.8c-.059,0-.06,0-.06-.061Z" transform="translate(-5.418 -7.834)" fill="#1b7159"/>
      <path id="Trazado_514" data-name="Trazado 514" d="M10.716,28.7v-.415c0-.061.005-.066.066-.066h.792c.056,0,.061.007.061.063v.847c0,.056,0,.058-.062.058h-.792c-.065,0-.065,0-.066-.063Z" transform="translate(-2.975 -7.834)" fill="#1b7159"/>
      <path id="Trazado_515" data-name="Trazado 515" d="M2.04,28.71v.415c0,.065,0,.066-.061.066H1.2c-.061,0-.061,0-.061-.066,0-.277,0-.553,0-.829,0-.071,0-.072.076-.072h.766c.064,0,.064,0,.064.064Z" transform="translate(-0.315 -7.834)" fill="#1b7159"/>
      <path id="Trazado_516" data-name="Trazado 516" d="M12.617,17.5l.007.02-.021-.006Z" transform="translate(-3.498 -4.857)" fill="#1b7159"/>
      <path id="Trazado_517" data-name="Trazado 517" d="M30.717,28.71c0,.141,0,.282,0,.423,0,.053,0,.054-.056.055h-.792c-.059,0-.06,0-.061-.06,0-.246,0-.493,0-.739a.876.876,0,0,0-.008-.123.037.037,0,0,1,.035-.046.26.26,0,0,1,.041,0h.767c.073,0,.074,0,.074.075Z" transform="translate(-8.272 -7.833)" fill="#1b7159"/>
      <text id="ISO" transform="translate(0.488 28.393)" fill="#1b7159" font-size="5" font-family="OpenSans, Open Sans"><tspan x="0" y="0" letter-spacing="-0.073em">IS</tspan><tspan y="0">O</tspan></text>
    </g>
  </g>
  <text id="_" data-name=" " transform="translate(8.598 28.392)" fill="#1b7159" font-size="5" font-family="OpenSans, Open Sans"><tspan x="0" y="0"> </tspan></text>
  <text id="_900" data-name="900" transform="translate(9.664 28.392)" fill="#1b7159" font-size="5" font-family="OpenSans-Bold, Open Sans" font-weight="700"><tspan x="0" y="0" letter-spacing="-0.073em">90</tspan><tspan y="0">0</tspan></text>
  <text id="_1" data-name="1" transform="translate(18.397 28.391)" fill="#1b7159" font-size="5" font-family="OpenSans-Bold, Open Sans" font-weight="700"><tspan x="0" y="0">1</tspan></text>
  <g id="Grupo_1731" data-name="Grupo 1731" transform="translate(0 0)">
    <g id="Grupo_1730" data-name="Grupo 1730" clip-path="url(#clip-path)">
      <text id="IS" transform="translate(0.001 36.039)" fill="#1b7159" font-size="5" font-family="OpenSans, Open Sans"><tspan x="0" y="0" letter-spacing="-0.073em">I</tspan><tspan y="0">S</tspan></text>
      <text id="O" transform="translate(3.983 36.039)" fill="#1b7159" font-size="5" font-family="OpenSans, Open Sans"><tspan x="0" y="0">O</tspan></text>
      <text id="_1400" data-name="1400" transform="translate(9.173 36.038)" fill="#1b7159" font-size="5" font-family="OpenSans-Bold, Open Sans" font-weight="700"><tspan x="0" y="0" letter-spacing="-0.073em">140</tspan><tspan y="0">0</tspan></text>
      <text id="_1-2" data-name="1" transform="translate(20.818 36.037)" fill="#1b7159" font-size="5" font-family="OpenSans-Bold, Open Sans" font-weight="700"><tspan x="0" y="0">1</tspan></text>
    </g>
  </g>
</svg>
