<svg id="Grupo_1746" data-name="Grupo 1746" xmlns="http://www.w3.org/2000/svg" xmlns:xlink="http://www.w3.org/1999/xlink" width="63.244" height="26.942" viewBox="0 0 63.244 26.942">
  <defs>
    <clipPath id="clip-path">
      <rect id="Rectángulo_1023" data-name="Rectángulo 1023" width="63.244" height="26.942" fill="none"/>
    </clipPath>
  </defs>
  <g id="Grupo_1743" data-name="Grupo 1743">
    <g id="Grupo_1742" data-name="Grupo 1742" clip-path="url(#clip-path)">
      <path id="Trazado_518" data-name="Trazado 518" d="M295.687.021a16.681,16.681,0,0,1,0,26.94h37.776V.021Z" transform="translate(-270.219 -0.019)" fill="#942454"/>
      <path id="Trazado_519" data-name="Trazado 519" d="M13.468,2.53A10.938,10.938,0,1,0,24.405,13.468,10.95,10.95,0,0,0,13.468,2.53m0,24.406A13.468,13.468,0,1,1,26.935,13.468,13.483,13.483,0,0,1,13.468,26.935" fill="#942454"/>
      <path id="Trazado_520" data-name="Trazado 520" d="M77.586,37.788l1.875-1.314a.6.6,0,0,1,.681.027,15.56,15.56,0,0,1,2.15,3.309c.12.237.46.966.46.966C86.137,35.541,91.905,30.442,95.057,29c.607-.279.706.134.379.442-3.535,3.328-7.117,6.572-11.081,15.85l-.285.625a.405.405,0,0,1-.422.277H81.989a.648.648,0,0,1-.66-.493,35.206,35.206,0,0,0-3.807-7.2c-.348-.431-.078-.6.064-.706" transform="translate(-70.69 -26.414)" fill="#d9d9d9"/>
      <path id="Trazado_521" data-name="Trazado 521" d="M79.677,44.121a.883.883,0,0,1-.834-.63,35.787,35.787,0,0,0-3.774-7.146.765.765,0,0,1-.214-.574.646.646,0,0,1,.3-.428l.021-.015L77.066,34a.783.783,0,0,1,.941.058A15.584,15.584,0,0,1,80.2,37.428c.066.13.194.4.3.623,3.418-5.135,9.006-10.077,12.185-11.535.522-.24.734-.034.8.065a.586.586,0,0,1-.185.729l-.234.22c-3.411,3.208-6.938,6.526-10.8,15.558l-.3.651a.608.608,0,0,1-.608.382H79.677m-4.251-8.443-.015.011c-.057.042-.122.09-.128.137,0,.02,0,.1.122.248a36.243,36.243,0,0,1,3.839,7.259c.143.363.361.358.443.357h1.675c.158,0,.186-.063.216-.129l.012-.025.284-.621c3.892-9.11,7.452-12.459,10.9-15.7L93,27a.382.382,0,0,0,.111-.162h0a.637.637,0,0,0-.252.072c-3.191,1.463-8.86,6.514-12.215,11.7l-.211.327-.165-.353c0-.007-.34-.729-.457-.96a15.494,15.494,0,0,0-2.107-3.251c-.143-.139-.379-.02-.415,0Z" transform="translate(-68.404 -24.13)" fill="#fff"/>
      <path id="Trazado_522" data-name="Trazado 522" d="M452.437,60.135a1.663,1.663,0,0,1-.524,1.455,2.5,2.5,0,0,1-1.835.69,1.739,1.739,0,0,1-1.835-1.882c0-2.192,2.645-2.454,4.194-2.478Zm3.193,1.12c-.12.405-.358,1.073-.835,1.073-.5,0-.5-.382-.5-1.1V55.561c0-.954,0-2.336-3.241-2.336-2.835,0-3.812,1.43-3.812,2.288a1.006,1.006,0,0,0,1,1.144.932.932,0,0,0,.977-1c0-.787-.715-.906-.715-1.1,0-.691,1.692-.858,2.216-.858.834,0,1.716.333,1.716,1.453v2.263c-3.646,0-5.91,1.239-5.981,3.456,0,1.762,1.286,2.334,2.786,2.334a4.054,4.054,0,0,0,3.217-1.452,1.54,1.54,0,0,0,1.55,1.452,2.023,2.023,0,0,0,2.025-1.953Z" transform="translate(-408.002 -48.641)" fill="#fff"/>
      <path id="Trazado_523" data-name="Trazado 523" d="M542.449,62.258q0-2.843.949-3.829t3.691-.986a6.315,6.315,0,0,1,3.585.714,3.046,3.046,0,0,1,.938,2.327h-2.453c-.065-.614-.653-1.255-2.027-1.255q-1.462,0-1.835.523a5.349,5.349,0,0,0-.373,2.565,4.638,4.638,0,0,0,.41,2.481q.411.51,2.01.508a2.491,2.491,0,0,0,1.617-.349c.238-.234.289-.59.357-1.251h2.435a7.685,7.685,0,0,1-.153,1.434c-.3,1.317-1.755,1.953-4.373,1.953q-2.88,0-3.829-.962t-.949-3.872" transform="translate(-495.727 -52.495)" fill="#fff"/>
    </g>
  </g>
  <path id="Trazado_524" data-name="Trazado 524" d="M487.873,204.763h-1.021V202.99h1.021v.308h-.645v.389h.6v.308h-.6v.457h.645Z" transform="translate(-444.918 -185.506)" fill="#fff"/>
  <g id="Grupo_1745" data-name="Grupo 1745">
    <g id="Grupo_1744" data-name="Grupo 1744" clip-path="url(#clip-path)">
      <path id="Trazado_525" data-name="Trazado 525" d="M504.573,204.763h-.478l-.771-1.341h-.011q.023.355.023.507v.834H503V202.99h.474l.77,1.328h.009q-.018-.346-.018-.489v-.839h.338Z" transform="translate(-459.676 -185.506)" fill="#fff"/>
      <path id="Trazado_526" data-name="Trazado 526" d="M525.284,204.763h-.376V203.3h-.481v-.313h1.339v.313h-.481Z" transform="translate(-479.257 -185.506)" fill="#fff"/>
      <rect id="Rectángulo_1024" data-name="Rectángulo 1024" width="0.376" height="1.773" transform="translate(46.782 17.484)" fill="#fff"/>
      <path id="Trazado_527" data-name="Trazado 527" d="M554.155,203.859a.873.873,0,0,1-.249.671,1.016,1.016,0,0,1-.72.233h-.5V202.99h.557a.937.937,0,0,1,.674.229.843.843,0,0,1,.24.64m-.391.01q0-.571-.5-.571h-.2v1.154h.161q.543,0,.543-.583" transform="translate(-505.08 -185.506)" fill="#fff"/>
      <path id="Trazado_528" data-name="Trazado 528" d="M572.744,204.685l-.128-.422h-.646l-.128.422h-.405l.626-1.78h.46l.628,1.78Zm-.218-.737q-.178-.574-.2-.649c-.015-.05-.026-.09-.032-.119q-.04.155-.229.768Z" transform="translate(-522.217 -185.428)" fill="#fff"/>
      <path id="Trazado_529" data-name="Trazado 529" d="M595.392,203.859a.873.873,0,0,1-.249.671,1.017,1.017,0,0,1-.72.233h-.5V202.99h.557a.937.937,0,0,1,.674.229.843.843,0,0,1,.24.64m-.39.01q0-.571-.5-.571h-.2v1.154h.161q.543,0,.543-.583" transform="translate(-542.765 -185.506)" fill="#fff"/>
      <path id="Trazado_530" data-name="Trazado 530" d="M437.636,237.607a.383.383,0,0,0-.329.159.742.742,0,0,0-.116.444q0,.593.445.593a1.406,1.406,0,0,0,.452-.093v.315a1.257,1.257,0,0,1-.487.091.743.743,0,0,1-.592-.235.993.993,0,0,1-.2-.674,1.1,1.1,0,0,1,.1-.484.728.728,0,0,1,.289-.319.856.856,0,0,1,.442-.111,1.192,1.192,0,0,1,.519.125l-.121.306a1.99,1.99,0,0,0-.2-.083.6.6,0,0,0-.2-.035" transform="translate(-399.181 -216.855)" fill="#fff"/>
      <path id="Trazado_531" data-name="Trazado 531" d="M457.113,239.363h-1.021V237.59h1.021v.308h-.645v.389h.6v.308h-.6v.457h.645Z" transform="translate(-416.808 -217.126)" fill="#fff"/>
      <path id="Trazado_532" data-name="Trazado 532" d="M472.616,238.684v.68h-.376v-1.773h.517a.884.884,0,0,1,.535.132.525.525,0,0,1,.087.678.57.57,0,0,1-.244.191q.4.6.521.772h-.417l-.423-.68Zm0-.306h.121a.464.464,0,0,0,.263-.059.212.212,0,0,0,.085-.187.194.194,0,0,0-.087-.179.526.526,0,0,0-.269-.053h-.114Z" transform="translate(-431.565 -217.127)" fill="#fff"/>
      <path id="Trazado_533" data-name="Trazado 533" d="M490.118,239.363h-.376V237.9h-.481v-.313H490.6v.313h-.481Z" transform="translate(-447.12 -217.126)" fill="#fff"/>
      <rect id="Rectángulo_1025" data-name="Rectángulo 1025" width="0.376" height="1.773" transform="translate(43.753 20.464)" fill="#fff"/>
      <path id="Trazado_534" data-name="Trazado 534" d="M517.887,239.363h-.37V237.59h1.016v.308h-.646v.457h.6v.307h-.6Z" transform="translate(-472.943 -217.126)" fill="#fff"/>
      <rect id="Rectángulo_1026" data-name="Rectángulo 1026" width="0.376" height="1.773" transform="translate(45.938 20.464)" fill="#fff"/>
      <path id="Trazado_535" data-name="Trazado 535" d="M542.8,237.607a.383.383,0,0,0-.329.159.742.742,0,0,0-.116.444q0,.593.445.593a1.407,1.407,0,0,0,.452-.093v.315a1.258,1.258,0,0,1-.487.091.743.743,0,0,1-.592-.235.993.993,0,0,1-.2-.674,1.1,1.1,0,0,1,.1-.484.728.728,0,0,1,.289-.319.856.856,0,0,1,.442-.111,1.193,1.193,0,0,1,.519.125l-.121.306a1.987,1.987,0,0,0-.2-.083.6.6,0,0,0-.2-.035" transform="translate(-495.292 -216.855)" fill="#fff"/>
      <path id="Trazado_536" data-name="Trazado 536" d="M559.977,239.286l-.128-.422H559.2l-.129.422h-.405l.626-1.78h.46l.628,1.78Zm-.218-.737q-.178-.574-.2-.649c-.015-.05-.026-.09-.032-.119q-.04.155-.229.768Z" transform="translate(-510.55 -217.049)" fill="#fff"/>
      <path id="Trazado_537" data-name="Trazado 537" d="M582.625,238.459a.873.873,0,0,1-.249.671,1.016,1.016,0,0,1-.72.233h-.5V237.59h.557a.937.937,0,0,1,.674.229.843.843,0,0,1,.24.64m-.39.01q0-.571-.5-.571h-.2v1.154h.161q.543,0,.543-.583" transform="translate(-531.098 -217.126)" fill="#fff"/>
      <path id="Trazado_538" data-name="Trazado 538" d="M603.269,238.178a.962.962,0,0,1-.218.677.946.946,0,0,1-1.251,0,.966.966,0,0,1-.218-.679.952.952,0,0,1,.219-.676.818.818,0,0,1,.628-.233.807.807,0,0,1,.625.235.965.965,0,0,1,.216.677m-1.294,0a.74.74,0,0,0,.113.447.394.394,0,0,0,.337.15q.45,0,.45-.6t-.447-.6a.4.4,0,0,0-.338.151.737.737,0,0,0-.114.448" transform="translate(-549.766 -216.83)" fill="#fff"/>
      <path id="Trazado_539" data-name="Trazado 539" d="M625.822,238.684v.68h-.376v-1.773h.517a.884.884,0,0,1,.535.132.525.525,0,0,1,.087.678.57.57,0,0,1-.244.191q.4.6.521.772h-.417l-.423-.68Zm0-.306h.121a.464.464,0,0,0,.263-.059.212.212,0,0,0,.085-.187.194.194,0,0,0-.087-.179.526.526,0,0,0-.269-.053h-.114Z" transform="translate(-571.575 -217.127)" fill="#fff"/>
      <path id="Trazado_540" data-name="Trazado 540" d="M643.2,239.286l-.128-.422h-.646l-.128.422h-.405l.626-1.78h.46l.628,1.78Zm-.218-.737q-.178-.574-.2-.649c-.015-.05-.026-.09-.032-.119q-.04.155-.229.768Z" transform="translate(-586.602 -217.049)" fill="#fff"/>
    </g>
  </g>
</svg>
